<svg width="43" height="42" viewBox="0 0 43 42" fill="none" xmlns="http://www.w3.org/2000/svg">
<path fill-rule="evenodd" clip-rule="evenodd" d="M21.5 36.5556C30.0911 36.5556 37.0556 29.5911 37.0556 21C37.0556 12.4089 30.0911 5.44444 21.5 5.44444C12.9089 5.44444 5.94444 12.4089 5.94444 21C5.94444 29.5911 12.9089 36.5556 21.5 36.5556ZM21.5 38.5C31.165 38.5 39 30.665 39 21C39 11.335 31.165 3.5 21.5 3.5C11.835 3.5 4 11.335 4 21C4 30.665 11.835 38.5 21.5 38.5Z" fill="#030303"/>
<path fill-rule="evenodd" clip-rule="evenodd" d="M32 22.75H11V20.125H32V22.75Z" fill="black"/>
<path fill-rule="evenodd" clip-rule="evenodd" d="M19.75 31.5L19.75 10.5L22.375 10.5L22.375 31.5L19.75 31.5Z" fill="black"/>
</svg>
